<svg width="35" height="24" viewBox="0 0 35 24" fill="none" xmlns="http://www.w3.org/2000/svg">
<path fill-rule="evenodd" clip-rule="evenodd" d="M0 12V24H17.5H35V12V0H17.5H0V12ZM11.9598 1.63287C11.9567 1.99692 11.9641 2.10015 11.9935 2.10063C12.065 2.10183 12.813 2.39082 12.7868 2.40711C12.7723 2.41608 12.5964 2.47275 12.3958 2.53311C12.1953 2.59344 12.0083 2.64984 11.9802 2.65842C11.9344 2.67243 11.9292 2.72205 11.9292 3.13701C11.9292 3.39165 11.9193 3.59991 11.9073 3.59979C11.8952 3.59967 11.7746 3.43092 11.6392 3.22479C11.5038 3.01866 11.388 2.85 11.3818 2.85C11.3756 2.85 11.1863 2.90475 10.9611 2.97165C10.736 3.03855 10.5452 3.08649 10.5371 3.07818C10.529 3.06987 10.631 2.91726 10.7637 2.73903C10.8963 2.5608 11.0158 2.40033 11.0292 2.38239C11.044 2.36238 10.9571 2.20701 10.8047 1.98114C10.6678 1.7784 10.5623 1.60593 10.5701 1.59789C10.5844 1.58322 10.8403 1.66881 11.2078 1.81122L11.4051 1.88766L11.6744 1.51731C11.8226 1.31364 11.9483 1.15119 11.9538 1.15635C11.9594 1.16151 11.9621 1.37595 11.9598 1.63287ZM5.91628 2.4975C5.9801 2.69961 6.16522 3.28674 6.32771 3.8022L6.62314 4.7394L7.96702 4.7472L9.3109 4.755L8.54192 5.32995C8.11898 5.64615 7.65628 5.99334 7.51374 6.10149C7.37118 6.20964 7.22864 6.31581 7.19696 6.33744C7.14117 6.37554 7.15207 6.41661 7.55247 7.67679C7.77965 8.39184 7.95973 8.98287 7.95258 8.99019C7.94547 8.99754 7.8365 8.92413 7.71044 8.82711C7.58438 8.73006 7.27781 8.49987 7.02917 8.31552C6.78052 8.1312 6.39882 7.8471 6.18091 7.68417L5.78474 7.38795L5.27675 7.7691C3.93231 8.77788 3.63058 8.9973 3.62232 8.97216C3.61742 8.95722 3.79304 8.38023 4.01258 7.68999C4.23208 6.99975 4.4133 6.41907 4.41522 6.3996C4.41717 6.38013 4.33096 6.29913 4.22368 6.2196C4.11638 6.14007 3.63075 5.778 3.14452 5.415L2.26042 4.755L3.60375 4.7472L4.94705 4.7394L5.086 4.2972C5.19639 3.94581 5.70818 2.33124 5.76106 2.1675C5.76771 2.14689 5.77929 2.13 5.78672 2.13C5.79419 2.13 5.8525 2.29539 5.91628 2.4975ZM13.7983 3.91749L14.1079 4.23495L14.4945 4.03566C14.7072 3.92607 14.8875 3.84288 14.8953 3.85086C14.903 3.85884 14.8229 4.0386 14.7172 4.25037C14.6115 4.46214 14.525 4.64859 14.525 4.6647C14.525 4.68084 14.6659 4.83936 14.838 5.01702C15.0102 5.19465 15.1331 5.34 15.1111 5.34C15.0699 5.34 14.4123 5.23032 14.3038 5.20533C14.2512 5.19324 14.2159 5.24535 14.0442 5.58816C13.9349 5.80644 13.8408 5.99064 13.8352 5.99751C13.8096 6.0288 13.7927 5.95257 13.7353 5.54793C13.7015 5.30982 13.6702 5.11107 13.6656 5.10624C13.661 5.10141 13.4624 5.06352 13.2241 5.02197C12.9859 4.98045 12.786 4.94133 12.7799 4.93506C12.7738 4.92876 12.9521 4.82916 13.1761 4.71375L13.5834 4.50387L13.5309 4.14945C13.5021 3.95451 13.472 3.75111 13.464 3.6975C13.456 3.64389 13.4583 3.6 13.4691 3.6C13.4798 3.6 13.6279 3.74286 13.7983 3.91749ZM14.1154 7.60869L14.2395 8.03238L14.3895 8.05092C14.4721 8.06112 14.6741 8.06961 14.8385 8.06973C15.003 8.06988 15.1371 8.08011 15.1367 8.0925C15.1363 8.10489 14.9739 8.22957 14.7758 8.36961L14.4156 8.62419L14.4577 8.77461C14.4808 8.85732 14.5384 9.05202 14.5855 9.2073C14.6327 9.36255 14.6651 9.49587 14.6577 9.50355C14.6502 9.51123 14.4861 9.39363 14.2929 9.24222C14.0591 9.05889 13.929 8.97498 13.9034 8.99097C13.8823 9.0042 13.7174 9.12105 13.537 9.25065C13.3565 9.38025 13.2031 9.48039 13.1961 9.47319C13.1891 9.46599 13.2502 9.267 13.3319 9.03099C13.4186 8.78022 13.4686 8.59425 13.4521 8.58345C13.3632 8.52525 12.775 8.05371 12.775 8.04066C12.7749 8.03205 12.9763 8.02929 13.2224 8.03454L13.6698 8.04408L13.7814 7.70454C13.9049 7.32897 13.9698 7.15797 13.9828 7.17426C13.9875 7.18017 14.0472 7.37565 14.1154 7.60869ZM12.0299 9.9075C12.0213 10.1096 12.0093 10.3175 12.0033 10.3694L11.9921 10.4639L12.3999 10.6226C12.6241 10.7099 12.8131 10.7905 12.8197 10.8017C12.8264 10.8128 12.6386 10.8751 12.4024 10.94L11.9729 11.0582L11.9471 11.5141C11.933 11.7649 11.9124 11.97 11.9015 11.97C11.8905 11.97 11.7775 11.8014 11.6502 11.5952C11.3831 11.1628 11.4752 11.192 10.8938 11.3553C10.7013 11.4093 10.5388 11.4487 10.5327 11.4429C10.5267 11.4371 10.6251 11.3025 10.7515 11.1439C10.8779 10.9853 11.0055 10.8224 11.0353 10.782L11.0893 10.7085L10.8517 10.3305C10.7211 10.1226 10.6207 9.94587 10.6286 9.93774C10.6365 9.92964 10.826 9.99678 11.0498 10.087L11.4566 10.2509L11.7372 9.89547C11.8914 9.69996 12.0239 9.54 12.0315 9.54C12.0391 9.54 12.0384 9.70536 12.0299 9.9075Z" fill="#FF0301"/>
</svg>
