<svg width="35" height="35" viewBox="0 0 35 35" fill="none" xmlns="http://www.w3.org/2000/svg">
<path fill-rule="evenodd" clip-rule="evenodd" d="M17.1233 0.0515321C16.7318 0.176401 16.4538 0.426732 16.2728 0.817264C16.1386 1.10683 16.1313 1.53842 16.2559 1.81392C16.3569 2.03707 16.6093 2.31873 16.8004 2.42148C16.8773 2.46285 16.9403 2.51007 16.9403 2.52643C16.9403 2.58412 15.8854 3.64231 15.4234 4.04809C13.1 6.08879 9.52281 7.873 6.09446 8.7012C5.75701 8.78272 5.45709 8.85642 5.42792 8.86495C5.35999 8.88483 5.66977 9.13694 6.233 9.52012C7.32107 10.2604 8.23022 10.6436 9.12259 10.7383C9.39302 10.767 12.1392 10.7764 17.7913 10.7679L26.0643 10.7555L26.3907 10.6681C27.3154 10.4204 28.2308 9.94507 29.243 9.18685C29.4456 9.03511 29.6023 8.9019 29.5912 8.89084C29.5801 8.87981 29.263 8.7926 28.8864 8.69713C24.7145 7.63914 20.939 5.57857 18.5274 3.04349L18.0466 2.53801L18.1367 2.47012C18.1862 2.43282 18.2915 2.3528 18.3707 2.2923C19.108 1.72916 18.9412 0.552115 18.0633 0.123332C17.7933 -0.00853148 17.4048 -0.0382076 17.1233 0.0515321ZM9.41946 13.4607V14.8009L9.27102 14.9167C8.57174 15.4618 6.74473 16.0527 4.23404 16.5456C3.70066 16.6503 3.13513 16.7572 2.97727 16.783C2.81945 16.8088 2.69029 16.8474 2.69029 16.8686C2.69029 16.8898 2.8818 17.0979 3.11581 17.3309C3.74155 17.954 4.3214 18.3157 5.12459 18.584C5.94004 18.8564 5.1143 18.8403 17.7001 18.8288L29.0726 18.8184L29.5392 18.6923C30.3201 18.4813 31.0869 18.0719 31.6554 17.5625C31.9142 17.3306 32.3506 16.8616 32.3284 16.8394C32.3227 16.8338 32.0028 16.7749 31.6173 16.7085C28.912 16.2426 26.7625 15.6008 25.8169 14.9766L25.609 14.8394V13.48V12.1205H24.2632H22.9174V13.464V14.8076H17.5143H12.1111V13.464V12.1205H10.7653H9.41946V13.4607ZM6.72779 21.5221V22.8626L6.56435 23.0022C6.47446 23.079 6.20327 23.2805 5.96166 23.4499C4.57343 24.4232 2.49273 25.4358 0.643239 26.0382C0.290235 26.1532 0.000801329 26.2668 9.66244e-06 26.2907C-0.00252367 26.3691 0.493693 26.9146 0.780079 27.1481C1.55951 27.7838 2.45667 28.146 3.49522 28.2443C4.15206 28.3064 31.6043 28.2741 31.9072 28.2108C32.6242 28.061 33.3194 27.78 33.8498 27.4254C34.3652 27.0809 35.1231 26.2947 34.983 26.25C32.4094 25.4284 30.2071 24.3534 28.6086 23.1387L28.3017 22.9055L28.2913 21.5535L28.2809 20.2014L26.9455 20.191L25.6101 20.1806L25.5997 21.5346L25.5893 22.8885L17.5044 22.8985C9.82428 22.9079 9.41922 22.905 9.41499 22.8392C9.41257 22.8011 9.40671 22.2721 9.40204 21.6635C9.39737 21.055 9.39048 20.4726 9.38672 20.3694L9.37988 20.1817H8.05383H6.72779V21.5221ZM4.02013 29.6593C4.00873 29.6777 3.99959 30.8868 3.99979 32.3463L4.0001 35H17.4962H30.9924V32.3129V29.6259H29.6465H28.3007V30.9694V32.3129H24.9163H21.532V30.9694V29.6259H17.4945H13.457V30.9694V32.3129H10.0726H6.68821V30.9694V29.6259H5.3645C4.63645 29.6259 4.03149 29.6409 4.02013 29.6593Z" fill="black"/>
</svg>
