<svg width="24" height="34" viewBox="0 0 24 34" fill="none" xmlns="http://www.w3.org/2000/svg">
<path fill-rule="evenodd" clip-rule="evenodd" d="M11.7532 0.0053934C11.7518 0.00837056 11.6846 0.593274 11.604 1.3052L11.4574 2.59962L10.9736 2.61043C10.5103 2.62076 10.4845 2.62361 10.3686 2.67715C10.2222 2.74472 10.1147 2.84672 10.0523 2.97716C10.011 3.06343 10.005 3.12166 9.99805 3.50032L9.99021 3.9264H9.90117C9.75876 3.9264 9.64508 3.97088 9.53123 4.07118C9.32909 4.24922 9.33352 4.22316 9.33374 5.23302L9.33396 6.11612L9.40095 6.23056C9.51738 6.42945 9.74989 6.5368 10.0643 6.5368C10.2298 6.5368 10.2364 6.53872 10.2364 6.58705C10.2364 6.68158 10.0149 8.37586 9.90476 9.1233C9.54845 11.542 9.13962 13.6197 8.61801 15.6624C7.97679 18.1736 7.28061 20.2047 6.14238 22.8849C5.99593 23.2297 5.87613 23.5175 5.87613 23.5243C5.87613 23.5312 6.65183 23.5368 7.59991 23.5368H9.32366L10.1163 20.921L10.9089 18.3052H11.9955H13.0822L13.8508 20.8401C14.2735 22.2343 14.6295 23.4114 14.6419 23.4559L14.6645 23.5368H16.3924C17.3427 23.5368 18.1202 23.5336 18.1202 23.5296C18.1202 23.5256 18.05 23.3582 17.9642 23.1575C17.2667 21.5263 16.8017 20.3287 16.3733 19.0603C15.2367 15.6951 14.4031 11.8326 13.8474 7.3566C13.7995 6.97097 13.757 6.62875 13.7529 6.59613L13.7455 6.5368L13.9564 6.53667C14.0724 6.53661 14.2058 6.5261 14.2528 6.51331C14.3683 6.48188 14.5363 6.32324 14.5999 6.18545C14.6511 6.07435 14.6519 6.06264 14.6583 5.23186C14.6639 4.50133 14.6601 4.37882 14.6294 4.30005C14.5579 4.11667 14.3357 3.95908 14.1119 3.93313L14.0067 3.92092L13.9981 3.50836C13.9884 3.04347 13.9652 2.95582 13.8107 2.80051C13.6544 2.64337 13.5706 2.62372 13.0167 2.61444C12.5789 2.60713 12.5267 2.60245 12.5267 2.57058C12.5268 2.52269 12.2656 0.159256 12.2504 0.0701142L12.2384 0H11.9972C11.8645 0 11.7547 0.00241624 11.7532 0.0053934ZM2.66097 29.4066C1.20148 31.9103 0.0040464 33.9681 1.64278e-05 33.9794C-0.00463015 33.9924 0.976657 34 2.65658 34H5.32053L5.33585 33.8759C5.40742 33.2968 5.66838 32.3601 5.94744 31.6808C6.64489 29.9831 7.73164 28.7495 9.11987 28.0799C9.81467 27.7447 10.5022 27.5603 11.3449 27.4832C11.7491 27.4463 12.65 27.4684 13.0229 27.5245C14.1742 27.6977 15.0679 28.0703 15.9119 28.729C17.0918 29.6497 18.003 31.1572 18.4613 32.9465C18.5433 33.2669 18.6707 33.8954 18.6707 33.9797C18.6707 33.9923 19.6896 34 21.3354 34C22.8009 34 24 33.9964 24 33.9919C24 33.9874 22.803 31.9317 21.3401 29.4237L18.6801 24.8636L11.9974 24.8589L5.31458 24.8543L2.66097 29.4066Z" fill="black"/>
</svg>
