<svg width="34" height="27" viewBox="0 0 34 27" fill="none" xmlns="http://www.w3.org/2000/svg">
<path fill-rule="evenodd" clip-rule="evenodd" d="M13.775 1.6875C13.7992 2.61576 13.8324 3.76974 13.849 4.2525L13.8792 5.13H17.2936H20.708L20.7294 4.1175C20.7413 3.56076 20.769 2.40651 20.7909 1.5525L20.8307 0H17.2809H13.7313L13.775 1.6875ZM17.7814 4.185C17.7814 4.7763 17.6969 4.86 17.0985 4.86C16.5001 4.86 16.4156 4.7763 16.4156 4.185C16.4156 3.5937 16.5001 3.51 17.0985 3.51C17.6969 3.51 17.7814 3.5937 17.7814 4.185ZM11.7331 6.3261C11.7331 6.8013 11.6119 7.00623 11.2941 7.0686C10.9575 7.13475 10.8408 7.35993 10.794 8.0325C10.7433 8.75934 10.6512 8.91 10.2575 8.91C9.84423 8.91 9.78199 9.03366 9.78199 9.855C9.78199 10.6831 9.72151 10.8 9.29423 10.8C8.86695 10.8 8.80646 10.9169 8.80646 11.745C8.80646 12.5731 8.74598 12.69 8.3187 12.69C7.93492 12.69 7.83093 12.8272 7.83093 13.3334C7.83093 13.7327 7.69377 14.0268 7.46979 14.1078C7.22239 14.1971 7.06806 14.59 6.97968 15.3541C6.86867 16.3153 6.7834 16.47 6.36529 16.47C5.94054 16.47 5.87987 16.5883 5.87987 17.415C5.87987 18.2431 5.81938 18.36 5.3921 18.36C4.98023 18.36 4.90433 18.4861 4.90433 19.17C4.90433 19.7848 4.81536 19.98 4.535 19.98C4.13015 19.98 3.9288 20.4803 3.9288 21.4871C3.9288 22.0037 3.82676 22.14 3.44104 22.14C3.03463 22.14 2.94917 22.275 2.92888 22.95C2.91542 23.3955 2.89357 23.912 2.8801 24.0975C2.86664 24.2833 2.61456 24.4733 2.31976 24.5203C1.94106 24.5808 1.60899 24.9572 1.18834 25.8028L0.593262 27H16.9916C26.0106 27 33.3899 26.9366 33.3899 26.8593C33.3899 26.7818 33.162 26.2421 32.8836 25.6597C32.5414 24.944 32.2095 24.5741 31.8593 24.5179C31.4148 24.4469 31.3274 24.2816 31.2437 23.355C31.159 22.4176 31.0753 22.2637 30.6096 22.1897C30.1275 22.1127 30.0731 21.9983 30.0731 21.0608C30.0731 20.1844 30.0028 20.0038 29.6341 19.9314C29.3198 19.8696 29.1775 19.6341 29.1334 19.1025C29.0897 18.5779 28.961 18.36 28.6944 18.36C28.3948 18.36 28.3171 18.1694 28.3171 17.4328C28.3171 16.6223 28.2498 16.4951 27.7806 16.4203C27.3148 16.3463 27.2311 16.1924 27.1465 15.255C27.0684 14.3907 26.9611 14.1577 26.6099 14.0886C26.2921 14.0262 26.1709 13.8213 26.1709 13.3461C26.1709 12.8701 26.0638 12.69 25.7807 12.69C25.4648 12.69 25.3905 12.5099 25.3905 11.745C25.3905 10.9169 25.33 10.8 24.9027 10.8C24.4755 10.8 24.415 10.6831 24.415 9.855C24.415 8.98506 24.3685 8.91 23.8297 8.91C23.2908 8.91 23.2443 8.83494 23.2443 7.965C23.2443 7.20009 23.17 7.02 22.8541 7.02C22.5679 7.02 22.4639 6.83991 22.4639 6.345V5.67H17.0985H11.7331V6.3261ZM18.7569 6.885C18.7569 7.21116 18.4533 7.29 17.196 7.29C15.9388 7.29 15.6352 7.21116 15.6352 6.885C15.6352 6.55884 15.9388 6.48 17.196 6.48C18.4533 6.48 18.7569 6.55884 18.7569 6.885ZM18.952 8.61786C18.952 8.75421 19.0053 9.05796 19.0704 9.29286C19.1734 9.66411 18.9434 9.72 17.3145 9.72C15.4452 9.72 15.4401 9.71811 15.4401 9.045C15.4401 8.37513 15.4532 8.37 17.196 8.37C18.1618 8.37 18.952 8.48151 18.952 8.61786ZM19.2238 11.2271C19.5373 12.3582 19.4322 12.42 17.196 12.42C16.0156 12.42 15.051 12.3287 15.0526 12.2175C15.054 12.1063 15.1082 11.7415 15.1728 11.4075C15.2846 10.83 15.3849 10.8 17.198 10.8C18.7573 10.8 19.127 10.878 19.2238 11.2271ZM19.5373 14.31V15.12H17.196C14.8733 15.12 14.8548 15.1149 14.8548 14.4901C14.8548 14.1434 14.9133 13.7789 14.9849 13.6801C15.0563 13.581 16.1099 13.5 17.3262 13.5H19.5373V14.31ZM19.7792 16.8685C19.8302 17.2365 19.8257 17.601 19.7695 17.6785C19.7133 17.7563 18.5407 17.82 17.1635 17.82H14.6597V17.01V16.2H17.1732H19.687L19.7792 16.8685ZM20.0875 19.6425C20.1498 20.2497 20.1478 20.25 17.1888 20.25C14.5687 20.25 14.2413 20.2009 14.3461 19.8229C14.4113 19.588 14.4645 19.281 14.4645 19.1406C14.4645 18.9886 15.5897 18.9154 17.2448 18.9602C19.9607 19.0334 20.0264 19.049 20.0875 19.6425ZM20.3177 22.275V22.95H17.196C14.2991 22.95 14.0743 22.9144 14.0743 22.4551C14.0743 22.1827 14.1329 21.8789 14.2045 21.7801C14.2759 21.681 15.6806 21.6 17.3262 21.6H20.3177V22.275ZM20.5128 24.5479C20.5128 24.6842 20.5661 24.988 20.6313 25.2229C20.7364 25.6025 20.3667 25.65 17.3145 25.65H13.8792V24.975V24.3H17.196C19.0802 24.3 20.5128 24.4072 20.5128 24.5479Z" fill="black"/>
</svg>
