<svg width="26" height="39" viewBox="0 0 26 39" fill="none" xmlns="http://www.w3.org/2000/svg">
<path fill-rule="evenodd" clip-rule="evenodd" d="M7.89973 0.151832C7.62302 0.306287 7.32409 0.852253 7.32409 1.20337C7.32409 1.45912 7.47307 1.77928 7.72442 2.06357C7.89924 2.26133 7.89914 2.28465 7.72266 2.86749C7.13186 4.81791 6.68445 9.88656 6.57267 15.8967L6.52992 18.1954C6.51695 18.8929 6.23778 19.559 5.74959 20.0573V20.0573L5.23144 20.5861C5.13202 20.6876 4.95942 20.6316 4.93846 20.4911V20.4911C4.91047 20.303 4.86368 19.403 4.83461 18.4911C4.72381 15.0204 4.14818 10.6266 3.6854 9.71934C3.6163 9.58398 3.65457 9.4653 3.83995 9.2391C4.70022 8.18937 3.61826 6.75608 2.43841 7.38243C2.14027 7.54071 1.84261 8.07823 1.8432 8.45718C1.84359 8.73554 2.1756 9.32964 2.37459 9.40802C2.49459 9.45526 2.49479 9.51806 2.37665 9.86204C1.80855 11.5152 1.31915 16.1848 1.15109 21.556C1.07827 23.8828 0.886521 26.8549 0.508606 31.5173C0.212225 35.172 -0.0162253 38.3375 0.000903735 38.5516V38.5516C0.0186719 38.7738 0.199481 38.9479 0.422235 38.9572L0.741659 38.9705L0.958004 38.9795C1.22705 38.9907 1.45129 38.7756 1.45129 38.5063V38.5063C1.45129 37.7635 1.7185 36.3382 2.04591 35.3348C2.60168 33.6319 3.72015 31.7164 4.50769 31.1187C4.76042 30.927 4.7842 30.9254 4.96009 31.0888C5.50793 31.5979 6.14953 35.4298 6.14953 38.1927V38.1927C6.14953 38.6337 6.50703 38.9912 6.94803 38.9912H7.06432V38.9912C7.57677 38.9912 7.99921 38.5893 8.02482 38.0775L8.04322 37.7099C8.23213 33.9391 9.28571 30.1063 10.9876 26.9988C11.5345 26.0002 12.3842 25.023 12.7054 25.023C12.9789 25.023 13.7625 25.8498 14.2172 26.6182C15.2735 28.4035 16.3708 31.3582 16.8529 33.7154C17.1384 35.1112 17.4054 37.3327 17.4056 38.3128V38.3128C17.4057 38.6875 17.7094 38.9912 18.0841 38.9912H18.6139V38.9912C19.2886 38.9912 19.8429 38.4582 19.8693 37.7839L19.8859 37.3582C19.9939 34.6038 20.5014 31.7422 20.9838 31.1676V31.1676C21.1089 31.0186 21.3292 30.9941 21.4843 31.1115V31.1115C22.3311 31.7524 23.617 34.0506 24.1001 35.7867C24.3536 36.6973 24.551 37.9295 24.551 38.6008V38.6008C24.551 38.8186 24.7323 38.9925 24.9498 38.9834L25.2606 38.9705L25.5668 38.9577C25.7966 38.9481 25.9827 38.7676 25.9992 38.5381V38.5381C26.0151 38.3167 25.7879 35.1964 25.4944 31.6043C25.1117 26.9223 24.9303 24.1059 24.8533 21.6565C24.7377 17.9781 24.5682 15.6016 24.251 13.2153C24.0536 11.7299 23.7693 10.2263 23.5984 9.76245C23.5273 9.56941 23.5608 9.47394 23.7791 9.24995C24.5089 8.50069 24.0102 7.23612 22.9849 7.23612C22.5412 7.23612 22.1525 7.48091 21.9704 7.87494C21.7155 8.42633 21.7801 8.81181 22.2088 9.29688C22.3813 9.49203 22.3809 9.51766 22.1967 10.0909C21.7012 11.6329 21.1269 16.4655 21.1256 19.1051C21.1254 19.5257 21.0967 20.0833 21.0619 20.3442V20.3442C21.0361 20.537 20.7998 20.6157 20.6636 20.4767L20.2299 20.034V20.034C19.7371 19.5311 19.4609 18.8552 19.4603 18.1512L19.4596 17.3377C19.4545 11.553 18.8708 4.55644 18.2403 2.72148C18.0963 2.30243 18.099 2.28093 18.3322 1.99644C18.6668 1.58815 18.7363 1.11162 18.5273 0.65931C18.1253 -0.210436 16.8875 -0.222394 16.4891 0.639614C16.2328 1.19392 16.2985 1.57649 16.7343 2.06899C16.9087 2.26605 16.9105 2.30354 16.7653 2.72218C16.232 4.25939 15.7421 9.30864 15.585 14.8874L15.537 16.5894C15.5274 16.9297 15.1983 17.1689 14.8716 17.073V17.073C14.5161 16.9686 14.2193 16.8832 14.212 16.8832C14.2047 16.8832 14.167 16.5357 14.1282 16.1112C14.0407 15.1529 13.8424 14.354 13.5672 13.8511L13.4985 13.7257C13.4146 13.5725 13.444 13.3821 13.5702 13.2613V13.2613C13.6879 13.1488 13.7842 13.0068 13.7842 12.9457C13.7842 12.778 13.1688 12.1623 13.0011 12.1623C12.8335 12.1623 12.2181 12.778 12.2181 12.9457C12.2181 13.0068 12.3144 13.1488 12.4321 13.2613V13.2613C12.5582 13.3821 12.5876 13.5725 12.5038 13.7257L12.4351 13.8511C12.1599 14.354 11.9616 15.1529 11.874 16.1112C11.8353 16.5357 11.7976 16.8832 11.7903 16.8832C11.783 16.8832 11.486 16.9686 11.1304 17.073V17.073C10.8035 17.169 10.4742 16.9298 10.4646 16.5892L10.4179 14.9376C10.2608 9.37848 9.81279 4.64396 9.27641 2.87302L9.20404 2.63418C9.13666 2.41179 9.18461 2.17044 9.33191 1.99071V1.99071C10.0042 1.17041 9.4982 -0.00784691 8.47908 0.00481491C8.30142 0.0070257 8.04077 0.0731483 7.89973 0.151832ZM9.56525 18.6293C9.64346 18.726 9.6691 19.4263 9.6507 20.9549C9.62711 22.911 9.60617 23.1538 9.45298 23.253C9.32809 23.3338 9.2353 23.3338 9.1104 23.253C8.95722 23.1538 8.93628 22.911 8.91269 20.9549C8.88548 18.6965 8.91621 18.4911 9.28169 18.4911C9.37615 18.4911 9.50378 18.5533 9.56525 18.6293ZM11.1323 18.6304C11.2084 18.7246 11.2361 19.2187 11.2177 20.1522C11.1942 21.3404 11.1663 21.55 11.0191 21.6453C10.8943 21.7259 10.8013 21.7259 10.6765 21.6453C10.5293 21.55 10.5014 21.3404 10.4779 20.1522C10.4497 18.7228 10.5013 18.4911 10.8478 18.4911C10.9422 18.4911 11.0703 18.5538 11.1323 18.6304ZM15.439 18.6304C15.5151 18.7246 15.5428 19.2187 15.5244 20.1522C15.5009 21.3404 15.473 21.55 15.3258 21.6453C15.201 21.7259 15.108 21.7259 14.9832 21.6453C14.836 21.55 14.8081 21.3404 14.7846 20.1522C14.7564 18.7228 14.808 18.4911 15.1545 18.4911C15.249 18.4911 15.377 18.5538 15.439 18.6304ZM17.0041 18.6293C17.0823 18.726 17.108 19.4263 17.0896 20.9549C17.066 22.911 17.0451 23.1538 16.8919 23.253C16.767 23.3338 16.6742 23.3338 16.5493 23.253C16.3961 23.1538 16.3752 22.911 16.3516 20.9549C16.3244 18.6965 16.3551 18.4911 16.7206 18.4911C16.815 18.4911 16.9427 18.5533 17.0041 18.6293ZM7.99917 20.2372C8.07738 20.3339 8.10302 21.0342 8.08462 22.5627C8.06103 24.5188 8.04009 24.7617 7.8869 24.8609C7.76201 24.9417 7.66922 24.9417 7.54432 24.8609C7.39114 24.7617 7.3702 24.5188 7.34661 22.5627C7.3194 20.3043 7.35013 20.0989 7.71561 20.0989C7.81007 20.0989 7.9377 20.1611 7.99917 20.2372ZM18.5702 20.2372C18.6484 20.3339 18.6741 21.0342 18.6557 22.5627C18.6321 24.5188 18.6111 24.7617 18.458 24.8609C18.3331 24.9417 18.2403 24.9417 18.1154 24.8609C17.9622 24.7617 17.9412 24.5188 17.9177 22.5627C17.8904 20.3043 17.9212 20.0989 18.2867 20.0989C18.3811 20.0989 18.5088 20.1611 18.5702 20.2372ZM6.43289 21.8447C6.51149 21.942 6.53675 22.7461 6.51825 24.5723C6.49466 26.9117 6.47557 27.1725 6.32082 27.2726C6.19593 27.3534 6.10314 27.3534 5.97824 27.2726C5.82349 27.1725 5.80441 26.9117 5.78082 24.5723C5.7538 21.8982 5.77847 21.7068 6.14953 21.7068C6.24399 21.7068 6.37152 21.7689 6.43289 21.8447ZM20.1361 21.8447C20.2147 21.942 20.24 22.7461 20.2215 24.5723C20.1979 26.9117 20.1788 27.1725 20.024 27.2726C19.8991 27.3534 19.8063 27.3534 19.6814 27.2726C19.5267 27.1725 19.5076 26.9117 19.484 24.5723C19.457 21.8982 19.4817 21.7068 19.8527 21.7068C19.9472 21.7068 20.0747 21.7689 20.1361 21.8447ZM4.08397 24.2568C4.16218 24.3535 4.18782 25.0538 4.16942 26.5824C4.14583 28.5384 4.12488 28.7813 3.9717 28.8805C3.84681 28.9613 3.75402 28.9613 3.62912 28.8805C3.47594 28.7813 3.45499 28.5384 3.4314 26.5824C3.40419 24.3239 3.43493 24.1185 3.80041 24.1185C3.89487 24.1185 4.0225 24.1807 4.08397 24.2568ZM22.4854 24.2568C22.5636 24.3535 22.5893 25.0538 22.5709 26.5824C22.5473 28.5384 22.5263 28.7813 22.3732 28.8805C22.2483 28.9613 22.1555 28.9613 22.0306 28.8805C21.8774 28.7813 21.8564 28.5384 21.8329 26.5824C21.8056 24.3239 21.8364 24.1185 22.2019 24.1185C22.2963 24.1185 22.4239 24.1807 22.4854 24.2568ZM2.51769 25.8644C2.59629 25.9616 2.62154 26.7658 2.60304 28.5919C2.57946 30.9313 2.56037 31.1921 2.40562 31.2923C2.28073 31.3731 2.18794 31.3731 2.06304 31.2923C1.90829 31.1921 1.88921 30.9313 1.86562 28.5919C1.8386 25.9178 1.86327 25.7264 2.23433 25.7264C2.32878 25.7264 2.45632 25.7885 2.51769 25.8644ZM24.0513 25.8644C24.1299 25.9616 24.1552 26.7658 24.1367 28.5919C24.1131 30.9313 24.094 31.1921 23.9392 31.2923C23.8143 31.3731 23.7215 31.3731 23.5967 31.2923C23.4419 31.1921 23.4228 30.9313 23.3992 28.5919C23.3722 25.9178 23.3969 25.7264 23.7679 25.7264C23.8624 25.7264 23.9899 25.7885 24.0513 25.8644ZM12.3385 26.3834C11.2778 27.7044 9.89883 31.2084 9.33328 34.0192C9.1062 35.1479 8.91337 36.6501 8.8338 37.9109L8.80262 38.4045C8.78255 38.7223 9.03494 38.9912 9.35344 38.9912V38.9912V38.9912C9.68916 38.9912 9.97229 38.741 10.0137 38.4079L10.0567 38.0616C10.2599 36.4265 10.8367 34.5696 11.1414 34.5696C11.3001 34.5696 11.7058 35.4988 11.9134 36.338C12.0714 36.9763 12.316 38.5412 12.316 38.9132C12.316 38.9561 12.4864 38.9912 12.6947 38.9912V38.9912C12.911 38.9912 13.0934 38.83 13.1201 38.6153L13.1889 38.0616C13.3921 36.4265 13.9689 34.5696 14.2736 34.5696C14.4322 34.5696 14.838 35.4988 15.0456 36.338C15.2035 36.9763 15.4481 38.5412 15.4481 38.9132C15.4481 38.9561 15.7177 38.9912 16.0471 38.9912V38.9912C16.3716 38.9912 16.6288 38.7172 16.6084 38.3933L16.5781 37.9109C16.3853 34.8483 15.7476 32.0046 14.6616 29.3645C13.9885 27.7282 12.9876 26.0279 12.6975 26.0279C12.657 26.0279 12.4954 26.1878 12.3385 26.3834ZM4.08475 32.8863C3.19444 34.2967 2.6283 35.8408 2.38516 37.5222C2.14722 39.1669 1.97642 38.9912 3.81294 38.9912H3.95792C4.73834 38.9912 5.36029 38.3387 5.32293 37.5592V37.5592C5.21233 35.2501 4.78567 32.2583 4.5672 32.2583C4.51993 32.2583 4.30283 32.541 4.08475 32.8863ZM21.1866 33.0271C20.9692 34.0428 20.7622 35.9022 20.6766 37.6094V37.6094C20.6389 38.3611 21.2382 38.9912 21.9908 38.9912H22.196H23.0028C23.423 38.9912 23.7528 38.6309 23.7157 38.2124V38.2124C23.588 36.7704 23.0319 34.8928 22.3687 33.6652C21.9656 32.9188 21.5245 32.2583 21.4292 32.2583C21.3862 32.2583 21.2771 32.6043 21.1866 33.0271Z" fill="black"/>
</svg>
