<svg width="10" height="15" viewBox="0 0 10 15" fill="none" xmlns="http://www.w3.org/2000/svg">
<path d="M6.44318 1.43446H9.41177C9.73665 1.43446 10 1.69679 10 2.0204V8.93446C10 9.25808 9.73665 9.5204 9.41177 9.5204H6.44318C5.72209 9.5204 5.08203 9.09586 4.81259 8.43882C4.72471 8.22445 4.51215 8.08594 4.27109 8.08594H1.17647V14.4141C1.17647 14.7377 0.913118 15 0.588235 15C0.263353 15 0 14.7377 0 14.4141V0.585938C0 0.262324 0.263353 0 0.588235 0H4.27109C4.99224 0 5.63229 0.42457 5.90171 1.08161C5.98959 1.29595 6.20215 1.43446 6.44318 1.43446Z" fill="#F8C523"/>
</svg>
